<?xml version="1.0" encoding="UTF-8"?>
<svg id="Layer_1" data-name="Layer 1" xmlns="http://www.w3.org/2000/svg" viewBox="0 0 652.99 214.24">
  <defs>
    <style>
      .cls-1 {
        fill: #00c073;
      }

      .cls-2 {
        fill: #ffb600;
      }

      .cls-3 {
        fill: #ea00a6;
      }
    </style>
  </defs>
  <g>
    <path class="cls-1" d="M210.03,184.18c-.01,21.39-19.04,29.77-36.52,29.76-27.41-.02-39.42-15.13-42.07-32.05h15.94c2.93,11.34,10.48,17.22,26,17.23,13.14,0,20.7-5.16,20.7-14.25,0-9.09-7.96-10.63-26.14-14.7-19.01-4.21-33.83-9.53-33.82-27.85.01-19.44,17.22-29.63,35.96-29.62,24.61.02,35.93,12.75,38.71,28.27h-15.94c-2.79-8.12-9.5-13.44-22.64-13.45-13.14,0-20.28,5.86-20.29,14.39,0,6.99,5.59,9.23,21.81,12.74,24.75,5.47,38.31,10.65,38.29,29.53Z"/>
    <path class="cls-1" d="M302.18,173.89c-.02,23.07-17.5,40.12-39.88,40.11-22.23-.01-39.84-17.23-39.83-40.16.02-23.21,17.92-40.12,39.88-40.1,22.09.01,39.84,16.94,39.83,40.16ZM238.42,173.85c0,14.82,10.47,25.04,23.9,25.05s23.92-10.19,23.93-25.01c0-14.82-10.61-25.04-23.9-25.04-13.28,0-23.92,10.19-23.93,25.01Z"/>
    <path class="cls-1" d="M314.2,187.6h16.08c2.37,8.54,8.66,12.46,21.95,12.47,10.21,0,16.5-3.07,16.51-8.8,0-6.43-7.27-7.42-20.13-10.5-21.53-5.33-30.62-9.67-30.61-22.53.01-15.52,13.16-24.46,32.46-24.45,19.72.01,30.76,9.39,33.54,23.37h-15.94c-2.23-6.31-8.1-9.39-17.89-9.39-10.21,0-16.22,3.49-16.23,8.8,0,4.89,4.75,6.16,18.17,9.38,20.83,4.91,32.85,8.55,32.84,23.51-.01,16.5-14.84,24.6-33.02,24.59-20.28-.01-34.81-9.81-37.74-26.45Z"/>
    <path class="cls-1" d="M483.16,114.58l-.06,97.88h-18.74s-48.89-75.69-48.89-75.69l1.51,34.68-.03,40.97h-15.8s.06-97.89.06-97.89h18.6s48.89,75.55,48.89,75.55l-1.38-34.54.03-40.97h15.8Z"/>
    <path class="cls-1" d="M579.18,178.41l-62.5-.04c1.25,14.12,11.17,21.96,24.04,21.97,9.23,0,16.92-3.9,20.56-11.45h16.36c-6.02,17.21-20.71,25.31-37.07,25.3-23.35-.01-39.98-16.81-39.97-40.02.01-23.21,16.53-40.26,39.74-40.25,24.75.02,40.4,19.18,38.84,44.49ZM517.52,165.5l44.75.03c-2.37-10.49-10.33-17.91-21.94-17.91-12.03,0-20.14,7.54-22.8,17.88Z"/>
    <path class="cls-1" d="M652.99,208.66c-4.2,2.51-13.15,5.58-21.96,5.58-15.8,0-28.1-9.95-28.08-31.2l.02-32.58h-14.26s0-14.83,0-14.83h14.26s.01-17.47.01-17.47l15.8-3.48v20.97s31.59.02,31.59.02v14.82s-31.61-.02-31.61-.02l-.02,31.74c0,11.19,5.16,17.34,15.09,17.35,4.89,0,10.35-1.67,16.36-3.77l2.79,12.87Z"/>
  </g>
  <g>
    <polygon class="cls-2" points="80.98 74.99 48.12 93.8 47.05 149.72 71.27 135.86 72 97.42 105.52 116.25 129.74 102.39 80.98 74.99"/>
    <polygon class="cls-3" points="48.11 93.79 48.25 55.93 .35 27.05 .25 54.95 33.17 74.81 .1 94.42 0 122.32 48.11 93.79"/>
    <polygon class="cls-1" points="48.26 55.93 80.98 74.98 129.94 47.94 105.82 33.9 72.17 52.49 71.72 14.04 47.6 0 48.26 55.93"/>
  </g>
</svg>